<svg width="253" height="75" viewBox="0 0 253 75" fill="none" xmlns="http://www.w3.org/2000/svg">
<g id="logo" clip-path="url(#clip0_101_16)">
<g id="Vrstva 2">
<g id="Layer 1">
<path id="Vector" d="M17.9847 62.8145L15.6601 67.4463L13.3356 62.8145H10.92H10.7162H8.14448L4.23702 67.4332V62.8145H1.96021V73.8906H4.23702V70.2L4.6707 69.7754L8.09677 73.8906H10.92L6.20593 68.2431L10.7943 62.9545L14.5282 69.6528V73.8906H16.8094V69.6528L20.6344 62.8145H17.9847Z" fill="#88BD2F"/>
<path id="Vector_2" d="M27.4953 68.1598C27.1397 67.8761 26.7355 67.6609 26.3027 67.525C25.8474 67.3782 25.384 67.2583 24.9149 67.166L24.2167 67.0172C24.006 66.9766 23.8018 66.9073 23.6095 66.8114C23.4423 66.7323 23.2943 66.6172 23.1758 66.4743C23.0608 66.3164 23.004 66.1228 23.0154 65.9271C23.0207 65.7513 23.0732 65.5804 23.1672 65.4324C23.2631 65.2905 23.3909 65.1734 23.5401 65.0909C23.7042 64.9954 23.8831 64.9288 24.0692 64.8939C24.2731 64.8508 24.4811 64.8302 24.6894 64.8326C25.0401 64.83 25.3859 64.9157 25.6955 65.0821C26.031 65.2736 26.313 65.5477 26.5152 65.8789L28.393 64.6137C27.9864 63.966 27.4099 63.4447 26.7277 63.1077C26.0882 62.8127 25.3924 62.6633 24.6894 62.6699C24.201 62.6683 23.7149 62.7361 23.2452 62.8713C22.7987 62.9981 22.3775 63.2025 22.0006 63.4754C21.6317 63.7413 21.3228 64.0829 21.0942 64.478C20.8495 64.8988 20.711 65.3739 20.6909 65.8614V65.9533C20.6745 66.4559 20.7755 66.9553 20.9858 67.4112C21.1671 67.8096 21.4337 68.1625 21.7664 68.4444C22.0984 68.7177 22.4758 68.9297 22.8809 69.0704C23.2967 69.2147 23.7251 69.3188 24.1603 69.3812C24.4378 69.425 24.7111 69.4688 24.9756 69.5213C25.2122 69.5639 25.4415 69.6406 25.6565 69.749C25.8283 69.8422 25.9767 69.974 26.0902 70.1342C26.1989 70.2835 26.254 70.4657 26.2463 70.6508C26.2561 70.8373 26.2132 71.0227 26.1226 71.1855C26.032 71.3483 25.8974 71.4817 25.7346 71.5702C25.412 71.7631 25.0426 71.8617 24.6677 71.8548H24.5896C24.1383 71.8395 23.6952 71.7291 23.2886 71.5308C22.8667 71.341 22.5104 71.0285 22.2651 70.6333L20.5304 71.9467C20.9584 72.6216 21.5573 73.1687 22.2651 73.5315C22.9118 73.8728 23.6301 74.0529 24.3598 74.0569C24.8558 74.0568 25.3492 73.986 25.8256 73.8467C26.2894 73.7129 26.7287 73.5045 27.1267 73.2294C27.5224 72.9713 27.8606 72.6329 28.1198 72.2357C28.3707 71.8188 28.5193 71.3475 28.5535 70.861V70.6071C28.5675 70.1347 28.4771 69.6651 28.2889 69.2324C28.114 68.8155 27.8417 68.4475 27.4953 68.1598Z" fill="#88BD2F"/>
<path id="Vector_3" d="M36.1819 70.2481C36.1813 70.4857 36.1168 70.7188 35.9954 70.9223C35.8854 71.1126 35.7378 71.278 35.5617 71.4083C35.3645 71.5444 35.1439 71.6424 34.9112 71.6972C34.663 71.7599 34.4081 71.7922 34.1523 71.7935C33.9035 71.792 33.6559 71.7597 33.415 71.6972C33.1853 71.6416 32.9677 71.5436 32.7732 71.4083C32.5961 71.2792 32.4483 71.1135 32.3395 70.9223C32.2233 70.7157 32.1649 70.4812 32.1703 70.2437V62.8013H29.8588V70.2437C29.842 70.7937 29.9538 71.3399 30.1851 71.8381C30.4164 72.3363 30.7608 72.7725 31.1902 73.1113C31.6016 73.4343 32.0694 73.6763 32.5693 73.8249C33.0832 73.9784 33.6163 74.0566 34.1523 74.0569C34.6953 74.0566 35.2356 73.9784 35.7569 73.8249C36.2598 73.6774 36.7307 73.4352 37.1446 73.1113C37.5723 72.7738 37.9155 72.3397 38.1468 71.844C38.378 71.3482 38.4908 70.8046 38.476 70.2569V62.8144H36.1819V70.2481Z" fill="#88BD2F"/>
<path id="Vector_4" d="M45.3412 71.544C44.9809 71.7287 44.583 71.8261 44.1789 71.8286H44.1182C43.8848 71.8286 43.6525 71.7946 43.4287 71.7279C43.2168 71.665 43.0173 71.5658 42.8388 71.4345C42.6753 71.319 42.5378 71.1698 42.4355 70.9967C42.3341 70.809 42.2832 70.5977 42.2881 70.3838V66.3474C42.2851 66.1313 42.339 65.9183 42.4442 65.7301C42.5521 65.5455 42.7005 65.3883 42.8779 65.2704C43.0617 65.1419 43.2634 65.0416 43.4764 64.9727C43.7031 64.8982 43.9404 64.8612 44.1789 64.8633H44.2353C44.6392 64.8629 45.0374 64.9589 45.3976 65.1435C45.7994 65.3311 46.1265 65.6505 46.3256 66.0497L48.1558 65.0515C47.9813 64.6605 47.7422 64.3023 47.4489 63.9921C47.174 63.7007 46.8584 63.4514 46.5121 63.2522C46.1794 63.0547 45.8201 62.9073 45.4453 62.8144C45.0855 62.7199 44.7154 62.6714 44.3437 62.6699C43.8031 62.6687 43.2653 62.7483 42.7478 62.9063C42.2509 63.0542 41.784 63.2899 41.3687 63.6024C40.9649 63.9094 40.6332 64.3025 40.3972 64.7538C40.1465 65.2462 40.0213 65.7939 40.0329 66.3474V70.3838C40.02 70.9441 40.1483 71.4985 40.4059 71.9949C40.6462 72.4347 40.9793 72.8158 41.3817 73.1113C41.8008 73.4217 42.2705 73.6558 42.7695 73.803C43.2776 73.9559 43.8048 74.034 44.335 74.035C45.094 74.0346 45.8403 73.8387 46.5034 73.4659C47.2263 73.0491 47.8253 72.4444 48.2382 71.7147L46.2736 70.6071C46.0805 71.0196 45.7507 71.351 45.3412 71.544Z" fill="#88BD2F"/>
<path id="Vector_5" d="M55.5413 62.8145L51.6339 67.4332V62.8145H49.3571V73.8906H51.6339V70.2L52.0676 69.7754L55.4936 73.8906H58.3169L53.6028 68.2431L58.3169 62.8145H55.5413Z" fill="#88BD2F"/>
<path id="Vector_6" d="M63.0093 59.8418L61.5391 62.0658H63.6468L65.6461 59.8418H63.0093Z" fill="#88BD2F"/>
<path id="Vector_7" d="M59.1669 73.8905H66.6045V71.6534H61.4611V69.4644H66.1882V67.2273H61.4611V65.0515H66.6045V62.7969H59.1669V73.8905Z" fill="#88BD2F"/>
<path id="Vector_8" d="M77.5029 68.4795C77.509 68.6027 77.522 68.7255 77.5419 68.8472C77.5679 69.0311 77.5939 69.2369 77.6243 69.4733C77.6546 69.7097 77.6893 69.9461 77.7284 70.1913C77.7674 70.4364 77.7978 70.629 77.8281 70.8261L77.672 70.8567L76.8957 68.856L73.4263 62.8145H71.1798V73.8906H73.474V68.4926L73.1791 66.6014L73.3309 66.5707L73.9987 68.0723L77.3467 73.8906H79.797V62.8145H77.5202L77.5029 68.4795Z" fill="#88BD2F"/>
<path id="Vector_9" d="M88.9954 63.5892C88.558 63.2737 88.0692 63.0381 87.5512 62.8931C87.0156 62.7366 86.4608 62.657 85.9032 62.6567C85.3449 62.658 84.7892 62.7346 84.2509 62.8844C83.7331 63.0241 83.2451 63.2585 82.8111 63.5761C82.3918 63.8803 82.0451 64.2752 81.7963 64.7319C81.5279 65.228 81.3933 65.7866 81.406 66.3517V70.3706C81.3933 70.9358 81.5279 71.4944 81.7963 71.9905C82.0465 72.4474 82.3929 72.8434 82.8111 73.1506C83.2463 73.465 83.734 73.6979 84.2509 73.838C84.7892 73.9878 85.3449 74.0643 85.9032 74.0656C86.4608 74.0654 87.0156 73.9858 87.5512 73.8292C88.0692 73.6843 88.558 73.4487 88.9954 73.1331C89.411 72.8267 89.757 72.4341 90.0102 71.9817C90.276 71.4879 90.4091 70.9325 90.3962 70.3706V66.3517C90.4087 65.7899 90.2756 65.2346 90.0102 64.7406C89.757 64.2882 89.411 63.8957 88.9954 63.5892ZM88.128 70.3706C88.1337 70.5873 88.0681 70.7997 87.9415 70.9748C87.809 71.1574 87.6369 71.3072 87.4385 71.4126C87.2126 71.5329 86.972 71.6227 86.7229 71.6796C86.4569 71.7414 86.1848 71.7723 85.9119 71.7716C85.6351 71.7727 85.359 71.7449 85.0879 71.6884C84.8396 71.6377 84.6 71.5507 84.3767 71.4301C84.1799 71.3222 84.0083 71.1729 83.8736 70.9923C83.7417 70.8128 83.6731 70.594 83.6785 70.3706V66.3517C83.6753 66.1313 83.7439 65.916 83.8736 65.7388C84.0088 65.5587 84.1803 65.4095 84.3767 65.301C84.5994 65.1815 84.8372 65.0931 85.0836 65.0383C85.349 64.9729 85.6213 64.9406 85.8946 64.942C86.1715 64.9423 86.4476 64.9716 86.7185 65.0296C86.9668 65.0803 87.2064 65.1673 87.4298 65.2879C87.6281 65.3935 87.8001 65.5432 87.9328 65.7257C88.0647 65.9068 88.1334 66.127 88.128 66.3517V70.3706Z" fill="#88BD2F"/>
<path id="Vector_10" d="M96.2552 68.9479L95.8389 71.2331H95.6654L95.2187 68.9479L93.1414 62.7969H90.7084L94.6766 73.8905H96.8754L100.844 62.7969H98.4106L96.2552 68.9479Z" fill="#88BD2F"/>
<path id="Vector_11" d="M101.711 73.8905H109.153V71.6534H104.005V69.4644H108.732V67.2273H104.005V65.0515H109.153V62.7969H101.711V73.8905Z" fill="#88BD2F"/>
<path id="Vector_12" d="M104.083 62.0658H106.191L108.19 59.8418H105.553L104.083 62.0658Z" fill="#88BD2F"/>
<path id="Vector_13" d="M118.776 69.1843L116.109 62.8145H113.724V73.8906H116.001V69.4952L115.753 67.3544H115.91L116.434 68.8691L117.957 72.4371H119.661L121.161 68.8866L121.691 67.3368H121.86L121.582 69.482V73.8906H123.859V62.8145H121.474L118.776 69.1843Z" fill="#88BD2F"/>
<path id="Vector_14" d="M125.78 73.8905H133.222V71.6534H128.074V69.4644H132.801V67.2273H128.074V65.0515H133.222V62.7969H125.78V73.8905Z" fill="#88BD2F"/>
<path id="Vector_15" d="M141.163 68.1599C140.808 67.8744 140.404 67.659 139.97 67.5251C139.515 67.3772 139.052 67.2573 138.582 67.1661C138.348 67.1135 138.114 67.061 137.884 67.0172C137.675 66.9759 137.472 66.9067 137.281 66.8115C137.114 66.7324 136.966 66.6173 136.848 66.4744C136.731 66.317 136.673 66.1234 136.683 65.9271C136.691 65.7514 136.745 65.5809 136.839 65.4324C136.934 65.2895 137.062 65.1722 137.212 65.0909C137.375 64.9962 137.552 64.9296 137.737 64.8939C137.941 64.851 138.148 64.8305 138.357 64.8326C138.709 64.83 139.056 64.9158 139.367 65.0822C139.702 65.2748 139.984 65.5487 140.187 65.879L142.06 64.6137C141.654 63.9661 141.077 63.4448 140.395 63.1077C139.756 62.812 139.06 62.6625 138.357 62.6699C137.87 62.668 137.385 62.7359 136.917 62.8713C136.469 62.999 136.047 63.2034 135.668 63.4755C135.301 63.7437 134.993 64.0849 134.762 64.478C134.517 64.8988 134.378 65.3739 134.358 65.8615V65.9534C134.344 66.4558 134.445 66.9547 134.653 67.4112C134.836 67.8099 135.104 68.1627 135.438 68.4444C135.769 68.7187 136.147 68.9308 136.553 69.0705C136.968 69.2151 137.397 69.3192 137.832 69.3813C138.11 69.4251 138.383 69.4689 138.643 69.5214C138.881 69.564 139.112 69.6407 139.328 69.7491C139.5 69.8423 139.648 69.9741 139.762 70.1343C139.871 70.2836 139.926 70.4658 139.918 70.6509C139.927 70.8373 139.884 71.0225 139.794 71.1851C139.703 71.3478 139.569 71.4813 139.406 71.5703C139.082 71.7627 138.711 71.8612 138.335 71.8548H138.257C137.806 71.8396 137.363 71.7292 136.956 71.5309C136.534 71.341 136.178 71.0286 135.932 70.6334L134.198 71.9468C134.626 72.6212 135.225 73.1683 135.932 73.5316C136.578 73.8728 137.294 74.0529 138.023 74.0569C138.519 74.0571 139.012 73.9864 139.489 73.8468C139.953 73.7148 140.393 73.5062 140.79 73.2295C141.197 72.9757 141.546 72.6369 141.813 72.2357C142.062 71.818 142.211 71.3472 142.247 70.861V70.6071C142.261 70.1348 142.17 69.6652 141.982 69.2325C141.8 68.8129 141.518 68.4447 141.163 68.1599Z" fill="#88BD2F"/>
<path id="Vector_16" d="M142.893 65.1172H146.037V73.8905H148.331V65.1172H151.48V62.7969H142.893V65.1172Z" fill="#88BD2F"/>
<path id="Vector_17" d="M159.854 63.5892C159.419 63.2737 158.931 63.038 158.415 62.8931C157.878 62.7363 157.321 62.6567 156.762 62.6567C156.205 62.6584 155.651 62.7349 155.114 62.8844C154.595 63.025 154.106 63.2593 153.67 63.5761C153.253 63.8831 152.907 64.2773 152.655 64.7319C152.39 65.2292 152.257 65.7872 152.269 66.3517V70.3706C152.257 70.9351 152.39 71.4931 152.655 71.9905C152.908 72.4455 153.254 72.841 153.67 73.1506C154.107 73.4643 154.596 73.697 155.114 73.838C155.651 73.9874 156.205 74.064 156.762 74.0656C157.321 74.0657 157.878 73.9861 158.415 73.8292C158.931 73.6843 159.419 73.4487 159.854 73.1331C160.272 72.8292 160.619 72.4361 160.869 71.9817C161.138 71.4891 161.273 70.9331 161.259 70.3706V66.3517C161.273 65.7893 161.138 65.2334 160.869 64.7406C160.619 64.2863 160.272 63.8932 159.854 63.5892ZM158.987 70.3706C158.992 70.5865 158.928 70.7983 158.805 70.9748C158.671 71.1575 158.497 71.3072 158.297 71.4126C158.073 71.5336 157.834 71.6234 157.586 71.6796C157.319 71.7414 157.045 71.7723 156.771 71.7716C156.496 71.7725 156.221 71.7447 155.951 71.6884C155.703 71.6385 155.463 71.5514 155.24 71.4301C155.042 71.3222 154.869 71.173 154.733 70.9923C154.604 70.8114 154.537 70.5932 154.542 70.3706V66.3517C154.539 66.1321 154.606 65.9173 154.733 65.7388C154.869 65.5586 155.042 65.4094 155.24 65.301C155.461 65.1807 155.697 65.0923 155.943 65.0383C156.209 64.9729 156.483 64.9406 156.758 64.942C157.033 64.9425 157.308 64.9719 157.578 65.0296C157.827 65.0802 158.068 65.1672 158.293 65.2879C158.491 65.3948 158.662 65.5442 158.796 65.7257C158.927 65.9073 158.994 66.1275 158.987 66.3517V70.3706Z" fill="#88BD2F"/>
<path id="Vector_18" d="M173.992 73.8906H186.916C187.871 73.8894 188.787 73.5058 189.463 72.8238C190.139 72.1417 190.519 71.2171 190.52 70.2525V32.76L173.992 49.4443V73.8906Z" fill="#88BD2F"/>
<path id="Vector_19" d="M211.957 11.1199L195.429 27.8041H213.826V74.0656H222.868C224.853 74.0633 226.755 73.2665 228.158 71.8499C229.562 70.4333 230.351 68.5127 230.353 66.5093V27.8041H249.327C249.81 27.8036 250.289 27.7067 250.736 27.519C251.182 27.3314 251.588 27.0567 251.929 26.7106C252.27 26.3645 252.54 25.9539 252.724 25.5023C252.908 25.0506 253.002 24.5668 253 24.0785V11.1199H211.957Z" fill="#88BD2F"/>
<path id="Vector_20" d="M137.624 7.81459L143.088 0H137.394L134.436 3.67745L131.474 0H125.78L131.249 7.81459H137.624Z" fill="#82A81C"/>
<path id="Vector_21" d="M51.0224 40.9116C51.0224 32.633 46.6856 28.2594 38.4891 28.2594H12.5333C9.23737 28.2594 7.76286 26.7709 7.76286 23.4437C7.76286 20.1165 9.23304 18.628 12.5333 18.628H38.4891C41.7894 18.628 43.2595 20.1121 43.2595 23.4437V24.4506H51.0224V23.4437C51.0224 15.165 46.6856 10.7915 38.4891 10.7915H12.5333C4.3368 10.7915 0 15.165 0 23.4437C0 31.7224 4.3368 36.0959 12.5333 36.0959H38.4891C41.7894 36.0959 43.2595 37.58 43.2595 40.9116C43.2595 44.2432 41.7894 45.7273 38.4891 45.7273H12.5333C9.23737 45.7273 7.76286 44.2432 7.76286 40.9116V39.9047H0V40.9116C0 49.1903 4.3368 53.5638 12.5333 53.5638H38.4891C46.6899 53.5638 51.0224 49.1903 51.0224 40.9116Z" fill="#82A81C"/>
<path id="Vector_22" d="M105.818 26.355C105.818 16.0275 100.614 10.7915 90.4005 10.7915H70.2127C59.9822 10.7915 54.7954 16.045 54.7954 26.355V53.5638H62.5583V26.355C62.5583 21.1015 64.9912 18.628 70.2127 18.628H90.4005C95.6047 18.628 98.055 21.084 98.055 26.355C98.055 31.626 95.622 34.082 90.4005 34.082H74.2676L66.5048 41.9185H90.4005C100.614 41.9185 105.818 36.6825 105.818 26.355Z" fill="#82A81C"/>
<path id="Vector_23" d="M148.08 53.5638C156.281 53.5638 160.613 49.1859 160.613 40.9116C160.613 32.6373 156.276 28.2594 148.08 28.2594H122.124C118.828 28.2594 117.354 26.7709 117.354 23.4437C117.354 20.1165 118.828 18.628 122.124 18.628H148.08C151.38 18.628 152.85 20.1121 152.85 23.4437V24.4506H160.613V23.4437C160.613 15.165 156.276 10.7915 148.08 10.7915H122.124C113.923 10.7915 109.591 15.1694 109.591 23.4437C109.591 31.718 113.928 36.0959 122.124 36.0959H148.08C151.38 36.0959 152.85 37.58 152.85 40.9116C152.85 44.2432 151.38 45.7273 148.08 45.7273H122.124C118.828 45.7273 117.354 44.2432 117.354 40.9116V39.9047H109.591V40.9116C109.591 49.1903 113.928 53.5638 122.124 53.5638H148.08Z" fill="#82A81C"/>
<path id="Vector_24" d="M173.992 20.2566V37.0153L199.64 11.1199H183.043C180.643 11.1222 178.343 12.0856 176.646 13.7985C174.949 15.5115 173.994 17.8341 173.992 20.2566Z" fill="#82A81C"/>
</g>
</g>
</g>
<defs>
<clipPath id="clip0_101_16">
<rect width="253" height="74.0657" fill="white"/>
</clipPath>
</defs>
</svg>
