<svg width="147" height="45" viewBox="0 0 147 45" fill="none" xmlns="http://www.w3.org/2000/svg">
<path d="M10.4496 37.7136L9.09902 40.4302L7.74841 37.7136H6.34488H6.22645H4.73221L2.46187 40.4225V37.7136H1.13898V44.2097H2.46187V42.0452L2.71385 41.7962L4.70449 44.2097H6.34488L3.60586 40.8975L6.27181 37.7958L8.44135 41.7243V44.2097H9.76677V41.7243L11.9892 37.7136H10.4496Z" fill="#9296A1"/>
<path d="M15.9755 40.8488C15.7689 40.6824 15.534 40.5562 15.2826 40.4765C15.018 40.3904 14.7488 40.3201 14.4762 40.266L14.0705 40.1787C13.9481 40.1549 13.8295 40.1143 13.7178 40.058C13.6206 40.0116 13.5346 39.9441 13.4658 39.8603C13.3989 39.7677 13.3659 39.6541 13.3726 39.5394C13.3757 39.4363 13.4061 39.336 13.4607 39.2492C13.5165 39.166 13.5907 39.0974 13.6775 39.0489C13.7728 38.9929 13.8767 38.9539 13.9849 38.9334C14.1033 38.9081 14.2242 38.896 14.3452 38.8974C14.549 38.8959 14.7499 38.9462 14.9298 39.0438C15.1247 39.1561 15.2886 39.3168 15.406 39.5111L16.4971 38.7691C16.2608 38.3892 15.9259 38.0835 15.5295 37.8858C15.158 37.7128 14.7537 37.6251 14.3452 37.629C14.0614 37.6281 13.779 37.6678 13.5061 37.7471C13.2467 37.8215 13.0019 37.9414 12.7829 38.1015C12.5686 38.2574 12.3891 38.4578 12.2563 38.6895C12.1141 38.9363 12.0336 39.2149 12.0219 39.5008V39.5548C12.0124 39.8495 12.0711 40.1424 12.1933 40.4098C12.2986 40.6435 12.4535 40.8504 12.6469 41.0157C12.8398 41.1761 13.059 41.3004 13.2944 41.3829C13.536 41.4675 13.7849 41.5286 14.0378 41.5652C14.199 41.5909 14.3578 41.6166 14.5115 41.6474C14.649 41.6724 14.7822 41.7173 14.9071 41.7809C15.007 41.8356 15.0932 41.9129 15.1591 42.0068C15.2223 42.0944 15.2543 42.2013 15.2498 42.3098C15.2555 42.4192 15.2306 42.5279 15.1779 42.6234C15.1253 42.7189 15.0471 42.7971 14.9525 42.849C14.765 42.9622 14.5504 43.02 14.3326 43.0159H14.2872C14.025 43.007 13.7675 42.9422 13.5313 42.8259C13.2862 42.7146 13.0791 42.5313 12.9366 42.2996L11.9287 43.0698C12.1774 43.4657 12.5254 43.7866 12.9366 43.9993C13.3124 44.1995 13.7297 44.3051 14.1537 44.3074C14.4419 44.3074 14.7286 44.2659 15.0054 44.1842C15.2748 44.1057 15.5301 43.9835 15.7613 43.8222C15.9913 43.6708 16.1878 43.4723 16.3384 43.2393C16.4841 42.9948 16.5705 42.7184 16.5903 42.4331V42.2842C16.5985 42.0071 16.546 41.7317 16.4366 41.4779C16.335 41.2334 16.1768 41.0176 15.9755 40.8488Z" fill="#9296A1"/>
<path d="M21.0227 42.0736C21.0223 42.213 20.9849 42.3496 20.9143 42.469C20.8504 42.5806 20.7646 42.6776 20.6623 42.754C20.5477 42.8339 20.4196 42.8913 20.2844 42.9235C20.1401 42.9603 19.9921 42.9792 19.8434 42.98C19.6989 42.9791 19.555 42.9601 19.415 42.9235C19.2816 42.8908 19.1551 42.8334 19.0421 42.754C18.9392 42.6783 18.8533 42.5812 18.7901 42.469C18.7226 42.3479 18.6887 42.2103 18.6919 42.071V37.7061H17.3488V42.071C17.339 42.3936 17.404 42.7139 17.5384 43.0061C17.6728 43.2983 17.8729 43.5541 18.1224 43.7528C18.3614 43.9423 18.6332 44.0842 18.9237 44.1714C19.2223 44.2614 19.532 44.3072 19.8434 44.3074C20.1589 44.3072 20.4728 44.2614 20.7757 44.1714C21.068 44.0848 21.3415 43.9428 21.5821 43.7528C21.8305 43.5549 22.03 43.3003 22.1643 43.0096C22.2987 42.7188 22.3642 42.4 22.3556 42.0787V37.7138H21.0227V42.0736Z" fill="#9296A1"/>
<path d="M26.3445 42.8335C26.1352 42.9418 25.904 42.999 25.6692 43.0004H25.6339C25.4983 43.0004 25.3634 42.9805 25.2333 42.9413C25.1102 42.9045 24.9943 42.8463 24.8906 42.7693C24.7956 42.7015 24.7157 42.614 24.6563 42.5126C24.5973 42.4024 24.5678 42.2785 24.5706 42.1531V39.7857C24.5689 39.659 24.6002 39.5341 24.6613 39.4237C24.724 39.3154 24.8102 39.2232 24.9133 39.1541C25.0201 39.0787 25.1373 39.0199 25.261 38.9795C25.3928 38.9358 25.5306 38.9141 25.6692 38.9153H25.702C25.9366 38.9151 26.168 38.9714 26.3773 39.0796C26.6108 39.1897 26.8008 39.377 26.9165 39.6111L27.9799 39.0257C27.8785 38.7964 27.7396 38.5863 27.5691 38.4043C27.4094 38.2334 27.2261 38.0873 27.0249 37.9704C26.8316 37.8546 26.6228 37.7681 26.405 37.7136C26.196 37.6582 25.9809 37.6298 25.765 37.6289C25.4508 37.6282 25.1384 37.6749 24.8377 37.7676C24.549 37.8543 24.2777 37.9925 24.0364 38.1758C23.8018 38.3559 23.609 38.5864 23.472 38.8511C23.3263 39.1399 23.2535 39.4611 23.2603 39.7857V42.1531C23.2527 42.4817 23.3273 42.8068 23.477 43.098C23.6166 43.3559 23.8102 43.5794 24.0439 43.7527C24.2875 43.9348 24.5604 44.0721 24.8503 44.1584C25.1455 44.2481 25.4519 44.2939 25.7599 44.2945C26.2009 44.2942 26.6346 44.1793 27.0198 43.9607C27.4398 43.7163 27.7879 43.3616 28.0277 42.9336L26.8863 42.284C26.7741 42.5259 26.5824 42.7203 26.3445 42.8335Z" fill="#9296A1"/>
<path d="M32.271 37.7136L30.0007 40.4225V37.7136H28.6778V44.2097H30.0007V42.0452L30.2527 41.7962L32.2433 44.2097H33.8837L31.1447 40.8975L33.8837 37.7136H32.271Z" fill="#9296A1"/>
<path d="M36.6101 35.9702L35.7559 37.2746H36.9805L38.1422 35.9702H36.6101Z" fill="#9296A1"/>
<path d="M34.3776 44.2098H38.6991V42.8977H35.7106V41.6139H38.4572V40.3018H35.7106V39.0257H38.6991V37.7034H34.3776V44.2098Z" fill="#9296A1"/>
<path d="M45.0313 41.0361C45.0348 41.1084 45.0424 41.1804 45.054 41.2518C45.0691 41.3597 45.0842 41.4803 45.1018 41.619C45.1195 41.7576 45.1396 41.8963 45.1623 42.0401C45.185 42.1839 45.2026 42.2968 45.2203 42.4124L45.1296 42.4304L44.6785 41.257L42.6627 37.7136H41.3574V44.2097H42.6904V41.0438L42.519 39.9346L42.6072 39.9167L42.9953 40.7974L44.9406 44.2097H46.3643V37.7136H45.0414L45.0313 41.0361Z" fill="#9296A1"/>
<path d="M51.7088 38.1682C51.4547 37.9832 51.1707 37.845 50.8697 37.76C50.5585 37.6682 50.2361 37.6215 49.9122 37.6213C49.5877 37.6221 49.2649 37.667 48.9521 37.7549C48.6512 37.8368 48.3677 37.9743 48.1155 38.1605C47.8719 38.339 47.6705 38.5706 47.5259 38.8384C47.3699 39.1294 47.2917 39.457 47.2991 39.7884V42.1455C47.2917 42.477 47.3699 42.8046 47.5259 43.0955C47.6713 43.3635 47.8726 43.5958 48.1155 43.776C48.3684 43.9604 48.6518 44.0969 48.9521 44.1791C49.2649 44.2669 49.5877 44.3118 49.9122 44.3126C50.2361 44.3125 50.5585 44.2658 50.8697 44.1739C51.1707 44.0889 51.4547 43.9508 51.7088 43.7657C51.9503 43.586 52.1513 43.3557 52.2984 43.0904C52.4528 42.8008 52.5302 42.475 52.5227 42.1455V39.7884C52.5299 39.4589 52.4526 39.1332 52.2984 38.8435C52.1513 38.5782 51.9503 38.348 51.7088 38.1682ZM51.2048 42.1455C51.2081 42.2726 51.17 42.3972 51.0965 42.4998C51.0195 42.607 50.9195 42.6948 50.8042 42.7566C50.6729 42.8272 50.5331 42.8798 50.3884 42.9132C50.2339 42.9495 50.0758 42.9676 49.9172 42.9672C49.7564 42.9678 49.5959 42.9515 49.4384 42.9184C49.2942 42.8886 49.155 42.8376 49.0252 42.7669C48.9109 42.7036 48.8112 42.616 48.7329 42.5101C48.6563 42.4049 48.6164 42.2765 48.6195 42.1455V39.7884C48.6177 39.6592 48.6575 39.5329 48.7329 39.429C48.8115 39.3233 48.9111 39.2358 49.0252 39.1722C49.1546 39.1021 49.2928 39.0503 49.4359 39.0181C49.5901 38.9798 49.7484 38.9608 49.9071 38.9616C50.068 38.9618 50.2285 38.979 50.3859 39.013C50.5301 39.0427 50.6693 39.0938 50.7991 39.1645C50.9144 39.2265 51.0143 39.3142 51.0914 39.4213C51.168 39.5275 51.2079 39.6566 51.2048 39.7884V42.1455Z" fill="#9296A1"/>
<path d="M55.9269 41.3109L55.685 42.6512H55.5842L55.3247 41.3109L54.1177 37.7034H52.7041L55.0097 44.2098H56.2873L58.5929 37.7034H57.1793L55.9269 41.3109Z" fill="#9296A1"/>
<path d="M59.0968 44.2098H63.4208V42.8977H60.4298V41.6139H63.1764V40.3018H60.4298V39.0257H63.4208V37.7034H59.0968V44.2098Z" fill="#9296A1"/>
<path d="M60.4752 37.2746H61.6998L62.8614 35.9702H61.3294L60.4752 37.2746Z" fill="#9296A1"/>
<path d="M69.0122 41.4495L67.4625 37.7136H66.0767V44.2097H67.3996V41.6318L67.2559 40.3763H67.3466L67.6515 41.2647L68.536 43.3573H69.5263L70.3981 41.2749L70.7055 40.366H70.8038L70.6425 41.6241V44.2097H71.9654V37.7136H70.5795L69.0122 41.4495Z" fill="#9296A1"/>
<path d="M73.0817 44.2098H77.4057V42.8977H74.4147V41.6139H77.1613V40.3018H74.4147V39.0257H77.4057V37.7034H73.0817V44.2098Z" fill="#9296A1"/>
<path d="M82.0195 40.8489C81.8135 40.6815 81.5784 40.5552 81.3265 40.4766C81.0622 40.3898 80.7929 40.3195 80.5202 40.266C80.3841 40.2352 80.248 40.2044 80.1145 40.1787C79.993 40.1545 79.8752 40.1139 79.7642 40.058C79.6671 40.0116 79.5811 39.9442 79.5122 39.8603C79.4445 39.768 79.4106 39.6545 79.4165 39.5394C79.4216 39.4363 79.4528 39.3363 79.5072 39.2492C79.5623 39.1654 79.6367 39.0966 79.7239 39.049C79.8185 38.9934 79.9216 38.9544 80.0288 38.9334C80.1473 38.9083 80.2681 38.8962 80.3891 38.8975C80.5937 38.8959 80.7955 38.9462 80.9763 39.0438C81.1707 39.1568 81.3344 39.3174 81.4525 39.5111L82.5411 38.7691C82.3048 38.3892 81.9699 38.0835 81.5735 37.8858C81.2021 37.7123 80.7977 37.6247 80.3891 37.6291C80.1062 37.628 79.8245 37.6677 79.5526 37.7472C79.2925 37.8221 79.0471 37.9419 78.8269 38.1015C78.6138 38.2588 78.4345 38.4589 78.3002 38.6895C78.158 38.9363 78.0776 39.2149 78.0659 39.5009V39.5548C78.0577 39.8494 78.1163 40.142 78.2372 40.4098C78.3435 40.6436 78.4993 40.8506 78.6933 41.0158C78.8859 41.1767 79.1052 41.301 79.3409 41.3829C79.5824 41.4678 79.8313 41.5288 80.0842 41.5652C80.2455 41.5909 80.4043 41.6166 80.5554 41.6474C80.6937 41.6724 80.8278 41.7174 80.9536 41.7809C81.0534 41.8356 81.1396 41.9129 81.2056 42.0069C81.2687 42.0944 81.3007 42.2013 81.2963 42.3099C81.3017 42.4192 81.2766 42.5278 81.224 42.6232C81.1714 42.7186 81.0934 42.7969 80.9989 42.8491C80.8105 42.9619 80.5951 43.0197 80.3765 43.016H80.3312C80.069 43.007 79.8115 42.9423 79.5752 42.826C79.3301 42.7146 79.1231 42.5314 78.9806 42.2996L77.9727 43.0699C78.2216 43.4655 78.5695 43.7863 78.9806 43.9994C79.3554 44.1995 79.7719 44.3051 80.1951 44.3075C80.4833 44.3076 80.7701 44.2661 81.0468 44.1842C81.3166 44.1068 81.5721 43.9845 81.8028 43.8222C82.0395 43.6734 82.2423 43.4746 82.3974 43.2393C82.542 42.9943 82.6283 42.7182 82.6494 42.4331V42.2842C82.6575 42.0071 82.605 41.7317 82.4957 41.4779C82.3896 41.2319 82.2261 41.0159 82.0195 40.8489Z" fill="#9296A1"/>
<path d="M83.0248 39.0642H84.8517V44.2098H86.1847V39.0642H88.014V37.7034H83.0248V39.0642Z" fill="#9296A1"/>
<path d="M92.8798 38.1682C92.6266 37.9832 92.3434 37.845 92.0432 37.76C91.7312 37.668 91.408 37.6213 91.0832 37.6213C90.7596 37.6223 90.4376 37.6672 90.1256 37.7549C89.8242 37.8373 89.5399 37.9748 89.2865 38.1605C89.0444 38.3406 88.8433 38.5718 88.6969 38.8384C88.543 39.1301 88.4658 39.4573 88.4727 39.7884V42.1455C88.4658 42.4766 88.543 42.8039 88.6969 43.0955C88.8439 43.3624 89.0449 43.5943 89.2865 43.776C89.5406 43.9599 89.8247 44.0964 90.1256 44.1791C90.4376 44.2667 90.7596 44.3116 91.0832 44.3126C91.408 44.3126 91.7312 44.266 92.0432 44.1739C92.3434 44.089 92.6266 43.9508 92.8798 43.7657C93.1226 43.5874 93.3239 43.3569 93.4694 43.0904C93.6259 42.8015 93.7041 42.4754 93.6962 42.1455V39.7884C93.7039 39.4586 93.6256 39.1325 93.4694 38.8435C93.3239 38.5771 93.1226 38.3465 92.8798 38.1682ZM92.3758 42.1455C92.3787 42.2721 92.3416 42.3964 92.27 42.4998C92.192 42.607 92.0912 42.6948 91.9752 42.7566C91.845 42.8276 91.706 42.8803 91.5619 42.9132C91.4065 42.9495 91.2476 42.9676 91.0882 42.9672C90.9282 42.9677 90.7686 42.9514 90.612 42.9184C90.4676 42.8891 90.3283 42.838 90.1987 42.7669C90.0836 42.7036 89.9831 42.6161 89.9039 42.5101C89.8292 42.404 89.7903 42.2761 89.793 42.1455V39.7884C89.7914 39.6596 89.8302 39.5336 89.9039 39.429C89.9834 39.3233 90.0839 39.2358 90.1987 39.1722C90.327 39.1016 90.4645 39.0498 90.6069 39.0181C90.762 38.9798 90.9211 38.9608 91.0806 38.9616C91.2407 38.9619 91.4003 38.9792 91.5569 39.013C91.7019 39.0427 91.842 39.0937 91.9727 39.1645C92.0874 39.2272 92.1872 39.3148 92.265 39.4213C92.3407 39.5278 92.3797 39.6569 92.3758 39.7884V42.1455Z" fill="#9296A1"/>
<path d="M101.094 44.2098H108.603C109.158 44.2092 109.691 43.9841 110.083 43.5841C110.476 43.1841 110.697 42.6418 110.697 42.0761V20.0869L101.094 29.8722V44.2098Z" fill="white"/>
<path d="M123.153 7.39502L113.55 17.1803H124.239V44.3125H129.492C130.646 44.3111 131.751 43.8437 132.566 43.0129C133.382 42.1821 133.84 41.0557 133.842 39.8807V17.1803H144.866C145.147 17.1799 145.425 17.1231 145.684 17.0131C145.944 16.903 146.179 16.7419 146.378 16.5389C146.576 16.3359 146.733 16.0951 146.84 15.8302C146.947 15.5653 147.001 15.2816 147 14.9952V7.39502H123.153Z" fill="white"/>
<path d="M79.9633 5.45652L83.1382 0.873291H79.8297L78.1112 3.0301L76.3902 0.873291H73.0817L76.2592 5.45652H79.9633Z" fill="#82A81C"/>
<path d="M29.6454 24.8677C29.6454 20.0123 27.1256 17.4473 22.3632 17.4473H7.28222C5.36717 17.4473 4.51044 16.5743 4.51044 14.6229C4.51044 12.6715 5.36465 11.7985 7.28222 11.7985H22.3632C24.2808 11.7985 25.135 12.6689 25.135 14.6229V15.2134H29.6454V14.6229C29.6454 9.76746 27.1256 7.20239 22.3632 7.20239H7.28222C2.5198 7.20239 0 9.76746 0 14.6229C0 19.4782 2.5198 22.0433 7.28222 22.0433H22.3632C24.2808 22.0433 25.135 22.9137 25.135 24.8677C25.135 26.8217 24.2808 27.6921 22.3632 27.6921H7.28222C5.36717 27.6921 4.51044 26.8217 4.51044 24.8677V24.2772H0V24.8677C0 29.7231 2.5198 32.2882 7.28222 32.2882H22.3632C27.1281 32.2882 29.6454 29.7231 29.6454 24.8677Z" fill="#82A81C"/>
<path d="M61.4831 16.3303C61.4831 10.2733 58.4593 7.20239 52.5252 7.20239H40.7955C34.8513 7.20239 31.8376 10.2836 31.8376 16.3303V32.2882H36.3481V16.3303C36.3481 13.2492 37.7617 11.7985 40.7955 11.7985H52.5252C55.5489 11.7985 56.9726 13.2389 56.9726 16.3303C56.9726 19.4218 55.559 20.8622 52.5252 20.8622H43.1515L38.6411 25.4583H52.5252C58.4593 25.4583 61.4831 22.3874 61.4831 16.3303Z" fill="#82A81C"/>
<path d="M86.0385 32.2882C90.8034 32.2882 93.3207 29.7205 93.3207 24.8677C93.3207 20.0149 90.8009 17.4473 86.0385 17.4473H70.9575C69.0425 17.4473 68.1857 16.5743 68.1857 14.6229C68.1857 12.6715 69.0425 11.7985 70.9575 11.7985H86.0385C87.9561 11.7985 88.8103 12.6689 88.8103 14.6229V15.2134H93.3207V14.6229C93.3207 9.76746 90.8009 7.20239 86.0385 7.20239H70.9575C66.1926 7.20239 63.6753 9.77003 63.6753 14.6229C63.6753 19.4757 66.1951 22.0433 70.9575 22.0433H86.0385C87.9561 22.0433 88.8103 22.9137 88.8103 24.8677C88.8103 26.8217 87.9561 27.6921 86.0385 27.6921H70.9575C69.0425 27.6921 68.1857 26.8217 68.1857 24.8677V24.2772H63.6753V24.8677C63.6753 29.7231 66.1951 32.2882 70.9575 32.2882H86.0385Z" fill="#82A81C"/>
<path d="M101.094 12.7537V22.5826L115.996 7.39502H106.353C104.959 7.39638 103.622 7.96139 102.636 8.96603C101.65 9.97068 101.096 11.3329 101.094 12.7537Z" fill="#82A81C"/>
</svg>
